<svg height="512" viewBox="0 0 64 64" width="512" xmlns="http://www.w3.org/2000/svg"><g id="Layer_13" data-name="Layer 13"><circle cx="32" cy="32" fill="#88929f" r="30"/><circle cx="32" cy="32" fill="#c1c8d1" r="16"/><g fill="#88929f"><path d="m30 28v-7.82a12 12 0 0 0 -6.42 3.28z"/><path d="m42.86 37.07a11.81 11.81 0 0 0 1.14-5.07 12 12 0 0 0 -.77-4.2l-7.33 4.35z"/><path d="m21.14 26.93a11.81 11.81 0 0 0 -1.14 5.07 12 12 0 0 0 .77 4.2l7.33-4.35z"/><path d="m30 35.65-7.06 4.2a11.92 11.92 0 0 0 7.06 4z"/><path d="m34 36v7.81a12 12 0 0 0 6.42-3.28z"/><path d="m34 28.35 7.06-4.2a11.92 11.92 0 0 0 -7.06-4z"/><circle cx="32" cy="32" r="2"/></g><path d="m29.42 28.81a1 1 0 0 0 .58.19.92.92 0 0 0 .46-.11 1 1 0 0 0 .54-.89v-7.82a1 1 0 0 0 -1.17-1 13 13 0 0 0 -7 3.56 1 1 0 0 0 -.29.79 1 1 0 0 0 .42.74zm-.42-7.38v4.63l-3.82-2.69a11.05 11.05 0 0 1 3.82-1.94z"/><path d="m34.9 32.11a1 1 0 0 0 .42.86l7 4.92a1 1 0 0 0 .57.18 1.09 1.09 0 0 0 .26 0 1 1 0 0 0 .65-.55 12.79 12.79 0 0 0 1.2-5.52 13 13 0 0 0 -.83-4.55 1 1 0 0 0 -1.45-.51l-7.34 4.35a1 1 0 0 0 -.48.82zm7.76-2.81a11.22 11.22 0 0 1 .34 2.7 10.85 10.85 0 0 1 -.59 3.53l-4.68-3.3z"/><path d="m29.1 31.89a1 1 0 0 0 -.42-.86l-7-4.92a1 1 0 0 0 -1.48.4 12.79 12.79 0 0 0 -1.2 5.49 13 13 0 0 0 .83 4.55 1 1 0 0 0 .61.6 1.26 1.26 0 0 0 .33.05 1 1 0 0 0 .51-.14l7.34-4.35a1 1 0 0 0 .48-.82zm-7.76 2.81a11.22 11.22 0 0 1 -.34-2.7 10.85 10.85 0 0 1 .59-3.53l4.68 3.3z"/><path d="m30.5 34.79a1 1 0 0 0 -1 0l-7.07 4.21a1 1 0 0 0 -.25 1.51 13 13 0 0 0 7.65 4.31h.17a1 1 0 0 0 1-1v-8.17a1 1 0 0 0 -.5-.86zm-1.5 7.78a11 11 0 0 1 -4.47-2.51l4.47-2.65z"/><path d="m34.58 35.19a1 1 0 0 0 -1.58.81v7.81a1 1 0 0 0 1 1h.17a13 13 0 0 0 7-3.56 1 1 0 0 0 .29-.79 1 1 0 0 0 -.42-.74zm.42 7.38v-4.63l3.82 2.69a11.05 11.05 0 0 1 -3.82 1.94z"/><path d="m33.5 29.21a1 1 0 0 0 1 0l7.07-4.21a1 1 0 0 0 .25-1.51 13 13 0 0 0 -7.65-4.31 1 1 0 0 0 -.82.23 1 1 0 0 0 -.35.76v8.17a1 1 0 0 0 .5.87zm1.5-7.78a11 11 0 0 1 4.47 2.51l-4.47 2.65z"/><path d="m32 1a31 31 0 1 0 31 31 31 31 0 0 0 -31-31zm0 60a29 29 0 1 1 29-29 29 29 0 0 1 -29 29z"/><path d="m32 15a17 17 0 1 0 17 17 17 17 0 0 0 -17-17zm0 32a15 15 0 1 1 15-15 15 15 0 0 1 -15 15z"/><circle cx="32" cy="32" r="2"/><path d="m32 7v2a23 23 0 0 1 23 23h2a25 25 0 0 0 -25-25z"/><path d="m9 32h-2a25 25 0 0 0 25 25v-2a23 23 0 0 1 -23-23z"/></g></svg>